<?xml version="1.0" encoding="iso-8859-1"?>
<!-- Generator: Adobe Illustrator 21.0.0, SVG Export Plug-In . SVG Version: 6.00 Build 0)  -->
<svg xmlns="http://www.w3.org/2000/svg" xmlns:xlink="http://www.w3.org/1999/xlink" version="1.1" id="Capa_1" x="0px" y="0px" viewBox="0 0 512 512" style="enable-background:new 0 0 512 512;" xml:space="preserve" width="512" height="512">
<path id="_x3C_Group_x3E__2_" d="M475.439,65.223l-84.853-42.426c-5.774-2.888-12.75-1.756-17.314,2.81l-10.607,10.606l-31.82-31.82  c-5.857-5.858-15.355-5.858-21.213,0L284.026,30h-60.754c-3.802,0-7.462,1.444-10.24,4.039l-63.265,59.106  C144.655,91.124,139.094,90,133.272,90c-24.813,0-45,20.187-45,45c0,19.555,12.541,36.228,30,42.42V240h-15c-8.284,0-15,6.716-15,15  V423.51c-34.192,6.968-60,37.271-60,73.491c0,8.284,6.716,15,15,15h330c8.284,0,15-6.716,15-15c0-41.355-33.645-75-75-75h-15v-15  c0-8.284-6.716-15-15-15s-15,6.716-15,15v15h-30v-15c0-8.284-6.716-15-15-15s-15,6.716-15,15v15h-30V255c0-8.284-6.716-15-15-15h-15  v-62.58c17.459-6.192,30-22.865,30-42.42c0-8-2.108-15.512-5.783-22.028L229.188,60h33.857c0.51,2.941,1.889,5.761,4.161,8.033  l31.82,31.82l-10.607,10.606c-4.565,4.565-5.697,11.54-2.81,17.314l42.426,84.853c4.585,9.171,16.8,11.123,24.023,3.898l31.82-31.82  l10.607,10.607c17.544,17.545,46.094,17.546,63.639,0c17.545-17.545,17.545-46.094,0-63.639l-10.607-10.607l31.82-31.82  C486.566,82.019,484.595,69.8,475.439,65.223z M355.702,482H60.842c6.191-17.461,22.874-30,42.43-30h210  C332.828,452,349.511,464.539,355.702,482z M118.272,422V270h30v152H118.272z M133.272,150c-8.271,0-15-6.729-15-15s6.729-15,15-15  s15,6.729,15,15S141.543,150,133.272,150z M299.026,57.427l21.213-21.213l21.214,21.213L320.239,78.64L299.026,57.427z   M345.562,180.596l-28.284-56.568l69.563-69.563l56.569,28.284C434.009,92.15,357.661,168.497,345.562,180.596z M436.912,152.886  c5.848,5.849,5.848,15.365,0,21.213c-5.849,5.849-15.365,5.849-21.213,0l-10.607-10.607l21.213-21.213L436.912,152.886z"/>















</svg>
