<svg height="512pt" viewBox="-150 0 512 512" width="512pt" xmlns="http://www.w3.org/2000/svg"><path d="m88.277344 176.550781h35.308594v264.828125h-35.308594zm0 0"/><path d="m141.242188 459.035156h-70.621094c-24.378906 0-44.136719 19.761719-44.136719 44.136719v8.828125h158.894531v-8.828125c0-24.375-19.761718-44.136719-44.136718-44.136719zm0 0"/><path d="m211.863281 158.898438-26.484375-158.898438h-158.894531l-26.484375 158.898438h167.722656v81.035156c-12.160156 4.300781-19.453125 16.734375-17.273437 29.445312 2.183593 12.714844 13.203125 22.003906 26.101562 22.003906 12.898438 0 23.921875-9.289062 26.101563-22.003906 2.183594-12.710937-5.113282-25.144531-17.273438-29.445312v-81.035156zm-158.898437-26.484376h-8.828125c-4.875 0-8.828125-3.953124-8.828125-8.828124s3.953125-8.828126 8.828125-8.828126h8.828125c4.875 0 8.828125 3.953126 8.828125 8.828126s-3.953125 8.828124-8.828125 8.828124zm88.277344 0h-52.964844c-4.875 0-8.828125-3.953124-8.828125-8.828124s3.953125-8.828126 8.828125-8.828126h52.964844c4.875 0 8.828124 3.953126 8.828124 8.828126s-3.953124 8.828124-8.828124 8.828124zm35.308593 141.242188c-4.875 0-8.828125-3.953125-8.828125-8.828125s3.953125-8.828125 8.828125-8.828125 8.828125 3.953125 8.828125 8.828125c-.011718 4.867187-3.957031 8.8125-8.828125 8.828125zm0 0"/></svg>