<?xml version="1.0" encoding="iso-8859-1"?>
<!-- Generator: Adobe Illustrator 16.0.0, SVG Export Plug-In . SVG Version: 6.00 Build 0)  -->
<!DOCTYPE svg PUBLIC "-//W3C//DTD SVG 1.1//EN" "http://www.w3.org/Graphics/SVG/1.1/DTD/svg11.dtd">
<svg version="1.1" id="Capa_1" xmlns="http://www.w3.org/2000/svg" xmlns:xlink="http://www.w3.org/1999/xlink" x="0px" y="0px"
	 width="31.713px" height="31.713px" viewBox="0 0 31.713 31.713" style="enable-background:new 0 0 31.713 31.713;"
	 xml:space="preserve">
<g>
	<g>
		<path d="M15.856,0c-5.187,0-8.979,11.169-8.979,15.917c0,3.873,2.302,7.297,5.775,8.662v1.437c0,0.518,0.167,0.812,0.396,0.978
			v0.929l6.013-0.667l-0.022-0.737l0.239-0.139V24.49c3.342-1.422,5.558-4.812,5.558-8.573C24.835,11.169,21.044,0,15.856,0z
			 M15.632,25.775l-2.599-13.272c0.429,0.127,1.072,0.269,1.818,0.269c0.303,0,0.601-0.024,0.888-0.07
			c1.113-0.18,2.113-0.333,2.656-0.415l-1.733,13.391l-0.816,0.077L15.632,25.775z M18.428,23.467l-0.414,0.151v1.969
			c-0.131,0.021-0.32,0.026-0.658,0.027l-0.037,0.003l1.824-14.095l-0.422,0.063c0,0-1.418,0.21-3.084,0.48
			c-0.254,0.041-0.518,0.062-0.786,0.062c-1.185,0-2.102-0.406-2.11-0.411l-0.569-0.255l2.815,14.374l-0.749,0.069
			c-0.117,0-0.224,0.004-0.32,0.007v-2.229l-0.432-0.146c-3.196-1.07-5.344-4.134-5.344-7.62c0-4.7,3.649-14.652,7.713-14.652
			s7.713,9.952,7.713,14.652C23.571,19.305,21.503,22.337,18.428,23.467z"/>
		<path d="M13.051,28.423v0.449c-0.057,0.233,0.019,0.555,0.064,0.713l0.074,0.257l5.566-0.615l0.274-0.09l0.011-0.271
			c0.014-0.083,0.03-0.251,0.03-0.759l-0.002-0.352L13.051,28.423z"/>
		<path d="M13.601,30.8c0.541,0.601,1.383,0.907,2.503,0.913h0.033l0,0c1.913,0,2.568-0.85,2.78-1.564l0.137-0.457l-5.868,0.65
			L13.601,30.8z"/>
	</g>
</g>
<g>
</g>
<g>
</g>
<g>
</g>
<g>
</g>
<g>
</g>
<g>
</g>
<g>
</g>
<g>
</g>
<g>
</g>
<g>
</g>
<g>
</g>
<g>
</g>
<g>
</g>
<g>
</g>
<g>
</g>
</svg>
