<?xml version="1.0" encoding="iso-8859-1"?>
<!-- Generator: Adobe Illustrator 16.0.0, SVG Export Plug-In . SVG Version: 6.00 Build 0)  -->
<!DOCTYPE svg PUBLIC "-//W3C//DTD SVG 1.1//EN" "http://www.w3.org/Graphics/SVG/1.1/DTD/svg11.dtd">
<svg version="1.1" id="Capa_1" xmlns="http://www.w3.org/2000/svg" xmlns:xlink="http://www.w3.org/1999/xlink" x="0px" y="0px"
	 width="33.578px" height="33.578px" viewBox="0 0 33.578 33.578" style="enable-background:new 0 0 33.578 33.578;"
	 xml:space="preserve">
<g>
	<g>
		<path d="M24.817,7.667l-16.833,4.51c-0.8,0.215-1.275,1.037-1.061,1.837c0.179,0.671,0.786,1.112,1.448,1.112
			c0.128,0,0.259-0.017,0.389-0.051l2.362-0.633v1.761H9.213c-0.462,0-0.841,0.379-0.841,0.842v4.208
			c0,0.463,0.227,1.146,0.505,1.515l1.515,2.021c0.278,0.37,0.505,1.053,0.505,1.515v1.685c0,0.463,0.379,0.842,0.842,0.842h10.099
			c0.464,0,0.843-0.379,0.843-0.842v-1.685c0-0.462,0.228-1.145,0.505-1.515l1.515-2.021c0.278-0.369,0.505-1.052,0.505-1.515
			v-4.208c0-0.463-0.379-0.842-0.841-0.842h-1.936c0.005-0.047,0.026-0.088,0.026-0.136v-4.661l3.139-0.841
			c0.8-0.215,1.274-1.037,1.061-1.837C26.44,7.928,25.618,7.458,24.817,7.667z M19.983,16.203h-6.36v-2.431l6.333-1.696v3.991
			C19.956,16.115,19.977,16.156,19.983,16.203z"/>
		<path d="M24.817,4.388L7.984,8.897c-0.8,0.215-1.275,1.037-1.061,1.837c0.179,0.671,0.786,1.112,1.448,1.112
			c0.128,0,0.259-0.017,0.389-0.051l16.833-4.51c0.8-0.215,1.274-1.037,1.061-1.837C26.44,4.647,25.618,4.18,24.817,4.388z"/>
		<path d="M8.372,8.567c0.128,0,0.259-0.017,0.389-0.051l16.833-4.51c0.8-0.215,1.274-1.037,1.061-1.837
			c-0.214-0.801-1.036-1.271-1.837-1.062L7.985,5.618c-0.8,0.215-1.275,1.037-1.061,1.837C7.103,8.126,7.709,8.567,8.372,8.567z"/>
		<path d="M8.372,5.289c0.128,0,0.259-0.017,0.389-0.051l8.546-2.289c0.8-0.215,1.274-1.037,1.061-1.837
			c-0.214-0.801-1.037-1.271-1.836-1.062L7.985,2.338c-0.8,0.215-1.275,1.037-1.061,1.837C7.103,4.848,7.709,5.289,8.372,5.289z"/>
		<path d="M20.289,29.078h-7c-0.414,0-0.75,0.336-0.75,0.75c0,0.193,0.079,0.367,0.199,0.5c-0.121,0.133-0.199,0.306-0.199,0.5
			c0,0.193,0.079,0.367,0.199,0.5c-0.121,0.133-0.199,0.306-0.199,0.5c0,0.414,0.336,0.75,0.75,0.75h1.3
			c-0.028,0.079-0.05,0.161-0.05,0.25c0,0.414,0.336,0.75,0.75,0.75h3c0.414,0,0.75-0.336,0.75-0.75c0-0.089-0.021-0.171-0.05-0.25
			h1.3c0.414,0,0.75-0.336,0.75-0.75c0-0.194-0.079-0.367-0.199-0.5c0.121-0.133,0.199-0.307,0.199-0.5
			c0-0.194-0.079-0.367-0.199-0.5c0.121-0.133,0.199-0.307,0.199-0.5C21.039,29.414,20.703,29.078,20.289,29.078z"/>
	</g>
</g>
<g>
</g>
<g>
</g>
<g>
</g>
<g>
</g>
<g>
</g>
<g>
</g>
<g>
</g>
<g>
</g>
<g>
</g>
<g>
</g>
<g>
</g>
<g>
</g>
<g>
</g>
<g>
</g>
<g>
</g>
</svg>
