<svg height="512pt" viewBox="-68 0 512 512" width="512pt" xmlns="http://www.w3.org/2000/svg"><path d="m187.5 0c-103.386719 0-187.5 84.113281-187.5 187.5 0 39.953125 12.410156 78.101562 35.882812 110.3125l41.617188 57.128906v29.558594c0 10.078125 4.003906 19.238281 10.496094 25.980469-6.300782 3.992187-10.496094 11.023437-10.496094 19.019531 0 5.757812 2.171875 11.015625 5.742188 15-3.570313 3.984375-5.742188 9.242188-5.742188 15 0 12.40625 10.09375 22.5 22.5 22.5h5.363281l12.933594 25.855469c1.269531 2.539062 3.867187 4.144531 6.707031 4.144531h125c2.839844 0 5.4375-1.605469 6.707032-4.144531l12.925781-25.855469h5.363281c12.40625 0 22.5-10.09375 22.5-22.5 0-5.757812-2.171875-11.015625-5.742188-15 3.570313-3.984375 5.742188-9.242188 5.742188-15 0-7.996094-4.195312-15.027344-10.496094-19.019531 6.492188-6.742188 10.496094-15.902344 10.496094-25.980469v-29.558594l41.613281-57.128906c23.476563-32.210938 35.886719-70.359375 35.886719-110.3125 0-103.386719-84.113281-187.5-187.5-187.5zm57.867188 497h-115.726563l-7.503906-15h130.730469zm-115.367188-45h145c4.136719 0 7.5 3.363281 7.5 7.5s-3.363281 7.5-7.5 7.5h-175c-4.136719 0-7.5-3.363281-7.5-7.5s3.363281-7.5 7.5-7.5c4.140625 0 7.5-3.355469 7.5-7.5s-3.359375-7.5-7.5-7.5c-4.136719 0-7.5-3.363281-7.5-7.5s3.363281-7.5 7.5-7.5h175c4.136719 0 7.5 3.363281 7.5 7.5s-3.363281 7.5-7.5 7.5h-145c-4.140625 0-7.5 3.355469-7.5 7.5s3.359375 7.5 7.5 7.5zm196.992188-163.019531-43.054688 59.105469c-.933594 1.28125-1.4375 2.828124-1.4375 4.414062v32c0 12.40625-10.09375 22.5-22.5 22.5h-145c-12.40625 0-22.5-10.09375-22.5-22.5v-32c0-1.585938-.503906-3.132812-1.4375-4.414062l-43.054688-59.105469c-21.59375-29.628907-33.007812-64.722657-33.007812-101.480469 0-95.117188 77.382812-172.5 172.5-172.5s172.5 77.382812 172.5 172.5c0 36.757812-11.414062 71.851562-33.007812 101.480469zm0 0"/><path d="m232.5 202.5c-16.542969 0-30 13.457031-30 30v15h-30v-15c0-16.542969-13.457031-30-30-30s-30 13.457031-30 30 13.457031 30 30 30h15v122c0 4.144531 3.359375 7.5 7.5 7.5s7.5-3.355469 7.5-7.5v-52.507812c0-8.273438 6.730469-15 15-15s15 6.726562 15 15v52.507812c0 4.144531 3.359375 7.5 7.5 7.5s7.5-3.355469 7.5-7.5v-122h15c16.542969 0 30-13.457031 30-30s-13.457031-30-30-30zm-90 45c-8.269531 0-15-6.730469-15-15s6.730469-15 15-15 15 6.730469 15 15v15zm45 54.492188c-5.460938 0-10.585938 1.472656-15 4.035156v-43.527344h30v43.527344c-4.414062-2.5625-9.539062-4.035156-15-4.035156zm45-54.492188h-15v-15c0-8.269531 6.730469-15 15-15s15 6.730469 15 15-6.730469 15-15 15zm0 0"/></svg>