<?xml version="1.0" encoding="iso-8859-1"?>
<!-- Generator: Adobe Illustrator 16.0.0, SVG Export Plug-In . SVG Version: 6.00 Build 0)  -->
<!DOCTYPE svg PUBLIC "-//W3C//DTD SVG 1.1//EN" "http://www.w3.org/Graphics/SVG/1.1/DTD/svg11.dtd">
<svg version="1.1" id="Capa_1" xmlns="http://www.w3.org/2000/svg" xmlns:xlink="http://www.w3.org/1999/xlink" x="0px" y="0px"
	 width="74.957px" height="74.957px" viewBox="0 0 74.957 74.957" style="enable-background:new 0 0 74.957 74.957;"
	 xml:space="preserve">
<g>
	<g>
		<path d="M47.646,42.193c7.412-3.803,12.166-11.527,12.166-19.859C59.812,10.02,49.792,0,37.479,0
			C25.165,0,15.146,10.019,15.146,22.333c0,8.332,4.754,16.06,12.166,19.86v19.473c0,0.555,0.447,1,1,1h18.334c0.555,0,1-0.445,1-1
			V42.193z M35.479,60.666v-28.5h4v28.5H35.479L35.479,60.666z M46.214,40.671c-0.348,0.166-0.568,0.517-0.568,0.899v19.095h-4.167
			v-28.5h3.167c2.85,0,5.166-2.317,5.166-5.167s-2.316-5.166-5.166-5.166s-5.167,2.318-5.167,5.167v3.167h-4v-3.167
			c0-2.85-2.318-5.166-5.167-5.166s-5.166,2.316-5.166,5.166s2.317,5.167,5.166,5.167h3.167v28.5h-4.167V41.574
			c0-0.387-0.222-0.736-0.569-0.902c-7.045-3.36-11.597-10.562-11.597-18.337c0-11.212,9.121-20.334,20.333-20.334
			s20.333,9.122,20.333,20.334C57.812,30.11,53.259,37.308,46.214,40.671z M41.479,26.999c0-1.746,1.421-3.166,3.167-3.166
			s3.166,1.42,3.166,3.166s-1.42,3.167-3.166,3.167h-3.167V26.999z M30.312,30.166c-1.746,0-3.166-1.421-3.166-3.167
			s1.42-3.166,3.166-3.166s3.167,1.418,3.167,3.166v3.167H30.312z"/>
		<path d="M47.479,70.999c0-0.556-0.446-1-1-1h-18c-0.553,0-1,0.444-1,1c0,0.554,0.447,1,1,1h18
			C47.032,71.999,47.479,71.551,47.479,70.999z"/>
		<path d="M46.479,65.999h-18c-0.553,0-1,0.444-1,1c0,0.554,0.447,1,1,1h18c0.554,0,1-0.446,1-1S47.032,65.999,46.479,65.999z"/>
		<path d="M34.479,72.957c-0.553,0-1,0.447-1,1c0,0.557,0.447,1,1,1h6c0.554,0,1-0.443,1-1c0-0.553-0.446-1-1-1H34.479z"/>
	</g>
</g>
<g>
</g>
<g>
</g>
<g>
</g>
<g>
</g>
<g>
</g>
<g>
</g>
<g>
</g>
<g>
</g>
<g>
</g>
<g>
</g>
<g>
</g>
<g>
</g>
<g>
</g>
<g>
</g>
<g>
</g>
</svg>
