<?xml version="1.0" encoding="iso-8859-1"?>
<!-- Generator: Adobe Illustrator 19.0.0, SVG Export Plug-In . SVG Version: 6.00 Build 0)  -->
<svg version="1.1" id="Capa_1" xmlns="http://www.w3.org/2000/svg" xmlns:xlink="http://www.w3.org/1999/xlink" x="0px" y="0px"
	 viewBox="0 0 490.667 490.667" style="enable-background:new 0 0 490.667 490.667;" xml:space="preserve">
<g>
	<g>
		<path d="M426.667,42.667h-11.733C409.984,18.347,388.416,0,362.667,0H128c-25.771,0-47.296,18.347-52.267,42.667H64
			c-5.888,0-10.667,4.779-10.667,10.667V96c0,5.888,4.779,10.667,10.667,10.667h362.667c5.888,0,10.667-4.779,10.667-10.667V53.333
			C437.333,47.445,432.555,42.667,426.667,42.667z"/>
	</g>
</g>
<g>
	<g>
		<path d="M405.333,128h-320c-5.888,0-10.667,4.779-10.667,10.667v298.667c0,29.419,23.936,53.333,53.333,53.333h234.667
			c29.419,0,53.333-23.915,53.333-53.333V138.667C416,132.779,411.221,128,405.333,128z M160,416
			c0,5.888-4.779,10.667-10.667,10.667s-10.667-4.779-10.667-10.667V202.667c0-5.888,4.779-10.667,10.667-10.667
			S160,196.779,160,202.667V416z M256,416c0,5.888-4.779,10.667-10.667,10.667s-10.667-4.779-10.667-10.667V202.667
			c0-5.888,4.779-10.667,10.667-10.667S256,196.779,256,202.667V416z M352,416c0,5.888-4.779,10.667-10.667,10.667
			c-5.888,0-10.667-4.779-10.667-10.667V202.667c0-5.888,4.779-10.667,10.667-10.667c5.888,0,10.667,4.779,10.667,10.667V416z"/>
	</g>
</g>
<g>
</g>
<g>
</g>
<g>
</g>
<g>
</g>
<g>
</g>
<g>
</g>
<g>
</g>
<g>
</g>
<g>
</g>
<g>
</g>
<g>
</g>
<g>
</g>
<g>
</g>
<g>
</g>
<g>
</g>
</svg>
