<svg height="464pt" viewBox="-31 0 463 464" width="464pt" xmlns="http://www.w3.org/2000/svg"><path d="m256.5 224h24.007812l-.007812-16h-224v16zm0 0"/><path d="m168.5 112c-5.535156 0-10.871094-.777344-16-2.105469v18.105469h32v-18.105469c-5.128906 1.328125-10.464844 2.105469-16 2.105469zm0 0"/><path d="m136.5 152v40h64v-40c0-4.40625-3.59375-8-8-8h-48c-4.40625 0-8 3.59375-8 8zm0 0"/><path d="m128.5 328c0 4.40625 3.59375 8 8 8s8-3.59375 8-8v-8h-8c-4.40625 0-8 3.59375-8 8zm0 0"/><path d="m184.5 48c0 8.835938-7.164062 16-16 16s-16-7.164062-16-16 7.164062-16 16-16 16 7.164062 16 16zm0 0"/><path d="m168.5 96c26.472656 0 48-21.527344 48-48s-21.527344-48-48-48-48 21.527344-48 48 21.527344 48 48 48zm0-80c17.648438 0 32 14.351562 32 32s-14.351562 32-32 32-32-14.351562-32-32 14.351562-32 32-32zm0 0"/><path d="m144.5 240h-48v88c0 30.878906 25.121094 56 56 56h32c30.878906 0 56-25.121094 56-56v-88h-48v64h8c13.230469 0 24 10.769531 24 24s-10.769531 24-24 24-24-10.769531-24-24v-8h-16v8c0 13.230469-10.769531 24-24 24s-24-10.769531-24-24 10.769531-24 24-24h8zm0 0"/><path d="m336.5 112h16v16h-16zm0 0"/><path d="m232.5 48c0 5.535156-.777344 10.871094-2.105469 16h122.105469v-32h-122.105469c1.328125 5.128906 2.105469 10.464844 2.105469 16zm0 0"/><path d="m392.5 0c-13.230469 0-24 10.769531-24 24v112c0 13.230469 10.769531 24 24 24h8v-160zm0 0"/><path d="m168.5 464c19.3125 0 35.472656-13.769531 39.191406-32h-78.382812c3.71875 18.230469 19.878906 32 39.191406 32zm0 0"/><path d="m256.5 244.945312v83.054688c0 39.695312-32.304688 72-72 72h-32c-39.695312 0-72-32.304688-72-72v-83.054688l-68.03125 86.589844c-7.722656 9.824219-11.96875 22.113282-11.96875 34.601563v49.863281h336v-49.863281c0-12.488281-4.246094-24.777344-11.96875-34.601563zm0 0"/><path d="m208.5 328c0-4.40625-3.59375-8-8-8h-8v8c0 4.40625 3.59375 8 8 8s8-3.59375 8-8zm0 0"/><path d="m160.5 240h16v64h-16zm0 0"/></svg>