<svg height="496pt" viewBox="-32 0 496 496" width="496pt" xmlns="http://www.w3.org/2000/svg"><path d="m408 0c-19.3125 0-35.472656 13.769531-39.191406 32h-129.464844c-11.085938-19.097656-31.71875-32-55.34375-32-35.289062 0-64 28.710938-64 64 0 23.625 12.902344 44.257812 32 55.34375v26.136719c-9.289062 3.3125-16 12.113281-16 22.527343v40h-64c-8.824219 0-16 7.175782-16 16v16c0 8.824219 7.175781 16 16 16h7.542969l-64.160157 81.648438c-9.917968 12.625-15.382812 28.421875-15.382812 44.480469v65.863281h128.640625c3.902344 27.097656 27.207031 48 55.359375 48s51.457031-20.902344 55.359375-48h128.640625v-65.863281c0-16.058594-5.464844-31.855469-15.382812-44.488281l-64.160157-81.648438h7.542969c8.824219 0 16-7.175781 16-16v-16c0-8.824219-7.175781-16-16-16h-64v-40c0-10.414062-6.710938-19.214844-16-22.527344v-26.136718c9.671875-5.617188 17.726562-13.671876 23.34375-23.34375h128.65625v16h-32v48h32.808594c3.71875 18.230468 19.871094 32 39.191406 32h24v-191.992188zm-200 336h8c4.40625 0 8 3.59375 8 8s-3.59375 8-8 8-8-3.59375-8-8zm-32-80h16v64h-16zm-24 64c-13.230469 0-24 10.769531-24 24s10.769531 24 24 24 24-10.769531 24-24v-8h16v8c0 13.230469 10.769531 24 24 24s24-10.769531 24-24-10.769531-24-24-24h-8v-64h48v88c0 30.878906-25.121094 56-56 56h-32c-30.878906 0-56-25.121094-56-56v-88h48v64zm8 16v8c0 4.40625-3.59375 8-8 8s-8-3.59375-8-8 3.59375-8 8-8zm24 144c-19.3125 0-35.472656-13.769531-39.191406-32h78.382812c-3.71875 18.230469-19.878906 32-39.191406 32zm168-97.863281v49.863281h-336v-49.863281c0-12.488281 4.246094-24.777344 11.96875-34.601563l68.03125-86.589844v83.054688c0 39.695312 32.304688 72 72 72h32c39.695312 0 72-32.304688 72-72v-83.054688l68.03125 86.589844c7.722656 9.824219 11.96875 22.113282 11.96875 34.601563zm-55.992188-142.136719h-224.007812v-16h224zm-144.007812-32v-40c0-4.40625 3.59375-8 8-8h48c4.40625 0 8 3.59375 8 8v40zm48-64h-32v-18.105469c5.128906 1.328125 10.464844 2.105469 16 2.105469s10.871094-.777344 16-2.105469zm-16-32c-26.472656 0-48-21.527344-48-48s21.527344-48 48-48 48 21.527344 48 48-21.527344 48-48 48zm61.894531-32c1.328125-5.128906 2.105469-10.464844 2.105469-16s-.777344-10.871094-2.105469-16h122.105469v32zm106.105469 48h16v16h-16zm64 48h-8c-13.230469 0-24-10.769531-24-24v-112c0-13.230469 10.769531-24 24-24h8zm0 0"/><path d="m184 32c-17.648438 0-32 14.351562-32 32s14.351562 32 32 32 32-14.351562 32-32-14.351562-32-32-32zm0 48c-8.824219 0-16-7.175781-16-16s7.175781-16 16-16 16 7.175781 16 16-7.175781 16-16 16zm0 0"/></svg>